<svg xmlns="http://www.w3.org/2000/svg" width="595" height="216" viewBox="0 0 595 216" version="1.1"><path d="M 255.500 8.508 C 245.151 10.178, 229.966 14.926, 229.283 16.705 C 228.920 17.651, 237.388 42.508, 238.516 43.809 C 238.663 43.978, 240.520 43.371, 242.642 42.459 C 255.518 36.925, 269.638 34.881, 278.065 37.331 C 286.481 39.777, 294 48.807, 294 56.468 L 294 59 268.973 59 L 243.945 59 244.223 73.250 L 244.500 87.500 269.250 87.767 C 293.305 88.027, 294 88.092, 294 90.050 C 294 92.981, 291.246 99.107, 288.702 101.834 C 285.325 105.454, 279.618 107.966, 273.262 108.630 C 265.827 109.406, 246.758 106.627, 237.623 103.436 C 233.789 102.096, 230.268 101, 229.799 101 C 229.330 101, 229.071 107.617, 229.223 115.704 L 229.500 130.408 234.055 132.036 C 242.094 134.910, 247.700 135.997, 259.412 136.951 C 296.660 139.987, 318.190 128.120, 327.940 99.178 C 332.107 86.809, 332.332 58.830, 328.365 46.500 C 322.435 28.074, 308.371 14.355, 290.500 9.565 C 281.863 7.249, 266.229 6.777, 255.500 8.508 M 513.500 8.520 C 503.746 10.665, 496.475 13.818, 490.396 18.538 C 475.181 30.353, 468.447 46.991, 468.555 72.500 C 468.750 118.505, 494.551 141.601, 540.497 136.900 C 568.783 134.006, 585.478 118.136, 590.494 89.373 C 593.353 72.978, 591.824 53.523, 586.641 40.339 C 578.020 18.412, 558.322 6.855, 530 7.107 C 524.225 7.159, 516.800 7.795, 513.500 8.520 M 353 72.500 L 353 136 370.986 136 L 388.971 136 389.236 105.332 L 389.500 74.664 407.330 105.332 L 425.159 136 444.580 136 C 456.817 136, 464 135.631, 464 135.003 C 464 134.455, 455.392 120.393, 444.870 103.753 C 434.349 87.114, 425.293 72.522, 424.745 71.327 C 423.888 69.457, 425.744 66.041, 438.051 46.827 C 445.917 34.547, 454.524 21.258, 457.177 17.295 C 459.829 13.332, 462 9.845, 462 9.545 C 462 9.245, 453.481 9, 443.068 9 L 424.136 9 422.221 11.750 C 420.339 14.452, 413.619 25.824, 397.590 53.435 L 389.500 67.369 389.235 38.185 L 388.970 9 370.985 9 L 353 9 353 72.500 M 520.500 37.896 C 512.073 41.797, 507.388 50.050, 506.008 63.421 C 504.686 76.240, 506.077 87.683, 509.904 95.457 C 514.450 104.691, 519.999 108, 530.937 108 C 547.468 108, 555.900 94.253, 554.769 69.144 C 553.973 51.470, 549.685 42.033, 540.571 37.893 C 535.186 35.447, 525.786 35.449, 520.500 37.896" stroke="none" fill="#3b3b3b" fill-rule="evenodd"/><path d="M 105.486 8.981 C 76.489 15.538, 52.500 34.198, 39.252 60.500 C 31.647 75.598, 26.793 103.370, 30.100 112.857 C 31.460 116.758, 34.977 117.900, 38.507 115.587 C 40.864 114.043, 41.001 113.450, 41.015 104.727 C 41.024 99.652, 41.467 94.825, 42 94 C 42.669 92.965, 42.974 92.894, 42.985 93.772 C 42.993 94.472, 44.811 97.009, 47.023 99.410 C 57.184 110.432, 72.544 106.316, 81.268 90.233 C 82.680 87.630, 85.638 80.262, 87.842 73.859 C 94.822 53.576, 94.598 53.845, 107.726 50.047 C 115.374 47.835, 117 46.300, 117 41.294 C 117 39.034, 115.475 37.076, 109.500 31.664 C 105.375 27.928, 102 24.544, 102 24.143 C 102 21.100, 130.279 18.935, 140 21.235 C 145.457 22.526, 145.502 22.567, 145.757 26.518 C 146.443 37.173, 149.791 42.428, 160.487 49.638 C 163.229 51.487, 165.254 53.042, 164.987 53.094 C 164.719 53.145, 157.525 53.519, 149 53.925 C 136.532 54.519, 132.576 55.075, 128.777 56.764 C 122.400 59.599, 119.767 63.849, 120.257 70.516 C 120.901 79.273, 124.258 84.344, 139.125 99.017 C 155.374 115.053, 155.442 115.212, 152 129.500 C 150.604 135.297, 149.987 140.110, 150.377 142.173 C 152.574 153.798, 163.565 158.209, 175.959 152.439 C 187.578 147.031, 194.606 139.047, 203.634 120.996 C 206.780 114.707, 209.559 110.178, 209.810 110.931 C 210.061 111.684, 209.701 115.495, 209.009 119.400 C 202.940 153.669, 176.615 180.430, 142 187.519 C 135.105 188.931, 130.747 189.138, 118.919 188.614 C 105.065 188.001, 104.246 188.071, 102.487 190.015 C 101.018 191.638, 100.833 192.623, 101.591 194.780 C 103.081 199.023, 108.176 200.219, 125 200.277 C 136.917 200.318, 141.093 199.922, 148.442 198.051 C 193.767 186.512, 223.970 146.070, 221.669 100 C 220.900 84.603, 218.132 73.844, 211.507 60.500 C 197.944 33.182, 173.936 14.916, 143.185 8.521 C 133.292 6.464, 115.665 6.679, 105.486 8.981 M 157.433 29.605 C 158.432 33.606, 160.404 35.600, 168.500 40.798 C 178.511 47.225, 180 48.771, 180 52.740 C 180 61.530, 174.912 63.930, 153.649 65.172 C 144.474 65.707, 136.282 66.691, 134.382 67.485 L 131.076 68.866 132.656 73.504 C 134.277 78.262, 139.477 84.106, 153.114 96.500 C 164.641 106.977, 167.556 116.487, 163.558 130.577 C 162.610 133.919, 161.984 137.969, 162.167 139.577 C 162.451 142.070, 162.985 142.547, 165.798 142.817 C 173.820 143.588, 184.470 133.186, 192.136 117.091 C 194.910 111.266, 199.615 102.830, 202.590 98.345 C 205.759 93.568, 208 89.082, 208 87.513 C 208 83.618, 203.392 70.885, 199.473 63.952 C 194.756 55.606, 187.950 46.993, 181.754 41.527 C 175.415 35.935, 163.594 28.408, 159.605 27.424 C 156.814 26.736, 156.736 26.814, 157.433 29.605 M 83.983 30.800 C 71.690 38.147, 62.414 46.763, 55.128 57.602 L 51.027 63.703 51.964 76.047 C 53.208 92.439, 56.140 96.565, 63.748 92.630 C 68.239 90.308, 71.623 84.468, 76.441 70.724 C 84.052 49.013, 86.816 44.763, 95.478 41.455 L 99.836 39.791 95.257 33.896 C 92.739 30.653, 90.189 28.023, 89.590 28.050 C 88.990 28.078, 86.467 29.316, 83.983 30.800 M 8.250 129.491 C 3.995 131.340, 4.056 132.665, 9.101 147.803 C 16.591 170.278, 25.351 177.283, 47.750 178.706 L 57 179.294 57 191.924 C 57 206.223, 57.973 209, 62.985 209 C 68.369 209, 69 207.262, 69 192.429 L 69 179 74.750 178.992 C 92.032 178.970, 104.183 173.649, 110.876 163.173 C 114.376 157.694, 120.982 138.889, 120.993 134.372 C 121.006 128.662, 118.613 128.017, 100.868 128.955 C 90.577 129.499, 86.414 130.145, 82.783 131.760 C 76.371 134.612, 68.553 142.158, 65.623 148.324 L 63.204 153.413 61.045 148.820 C 57.798 141.911, 52.843 136.728, 45.999 133.080 C 40.898 130.361, 38.193 129.653, 30.173 128.936 C 16.737 127.735, 12.015 127.854, 8.250 129.491 M 19 140.391 C 19 140.760, 19.916 143.783, 21.036 147.108 C 25.899 161.544, 33.255 166.914, 48.250 166.976 C 54.883 167.004, 54.982 166.791, 52.301 158.285 C 50.257 151.801, 45.263 145.685, 39.691 142.842 C 35.695 140.804, 19 138.826, 19 140.391 M 91.500 140.935 C 82.869 143.036, 77.292 148.790, 74.109 158.874 C 72.949 162.549, 72 165.945, 72 166.419 C 72 166.894, 75.734 167.049, 80.298 166.764 C 90.024 166.157, 95.301 163.885, 99.878 158.332 C 102.655 154.962, 107 144.576, 107 141.306 C 107 139.858, 96.913 139.617, 91.500 140.935 M 525.224 156.419 C 516.925 159.108, 514.151 162.221, 517.544 165.037 C 518.821 166.096, 519.732 165.963, 522.794 164.268 C 528.457 161.135, 532.002 160.722, 535.949 162.738 C 542.300 165.982, 542.052 173.952, 535.349 182.053 C 533.325 184.499, 527.965 190.325, 523.436 195 C 509.553 209.333, 510.053 210.141, 532.574 209.775 L 549.500 209.500 549.813 206.250 L 550.127 203 536.838 203 L 523.548 203 532.448 194.250 C 546.915 180.025, 550.201 172.764, 546.232 163.791 C 543.102 156.716, 534.079 153.550, 525.224 156.419 M 570 155.700 C 560.973 158.965, 556.999 164.282, 557.002 173.088 C 557.004 182.899, 561.962 188.928, 570.676 189.715 C 574.397 190.051, 576.564 189.604, 580.157 187.758 L 584.815 185.366 584.299 188.933 C 583.577 193.916, 580.853 199.021, 577.631 201.426 C 575.603 202.940, 572.964 203.564, 567.394 203.845 C 559.954 204.221, 559.891 204.247, 560.194 206.862 C 560.485 209.372, 560.813 209.515, 566.966 209.803 C 575.284 210.194, 580.928 208.070, 585.371 202.879 C 589.927 197.557, 591.506 191.505, 591.470 179.500 C 591.429 165.909, 588.515 160.202, 579.746 156.538 C 576.030 154.986, 572.754 154.704, 570 155.700 M 228.475 157.203 C 228.195 157.935, 228.085 170.002, 228.232 184.017 L 228.500 209.500 231.694 209.809 C 234.604 210.091, 234.942 209.825, 235.504 206.809 C 235.844 204.989, 235.981 199.450, 235.811 194.500 L 235.500 185.500 248.719 185.221 L 261.938 184.942 262.219 197.221 L 262.500 209.500 265.717 209.811 L 268.935 210.122 269.217 183.963 C 269.373 169.575, 269.226 157.362, 268.891 156.822 C 268.557 156.282, 266.982 155.988, 265.391 156.170 L 262.500 156.500 262.216 167.250 L 261.932 178 248.966 178 L 236 178 235.889 172.250 C 235.560 155.239, 235.854 156.534, 232.243 156.186 C 230.212 155.990, 228.794 156.373, 228.475 157.203 M 282.006 174.750 C 282.012 195.108, 282.685 199.284, 286.742 204.105 C 290.341 208.382, 294.668 210, 302.508 210 C 312.486 210, 319.870 205.428, 322.024 197.917 C 322.561 196.045, 323 185.819, 323 175.193 L 323 155.873 319.750 156.187 L 316.500 156.500 316 176.500 C 315.436 199.079, 315.160 200.010, 308.261 202.644 C 300.558 205.586, 292.659 202.622, 290.306 195.906 C 289.559 193.774, 289.092 185.675, 289.056 174.250 L 289 156 285.500 156 L 282 156 282.006 174.750 M 336.451 157.267 C 336.184 157.964, 336.085 170.002, 336.232 184.017 L 336.500 209.500 339.500 209.500 L 342.500 209.500 342.471 188.827 C 342.454 177.457, 342.721 168.328, 343.063 168.539 C 343.655 168.905, 346.037 172.511, 363.055 198.799 C 370.296 209.985, 370.405 210.096, 373.935 209.799 L 377.500 209.500 377.766 182.685 L 378.033 155.871 374.766 156.185 L 371.500 156.500 371.345 176.322 C 371.259 187.224, 371.014 196.319, 370.800 196.534 C 370.414 196.919, 364.120 187.590, 350.717 166.768 C 344.123 156.523, 343.620 156, 340.362 156 C 338.478 156, 336.718 156.570, 336.451 157.267 M 385 159.500 L 385 163 392.982 163 L 400.963 163 401.232 186.250 L 401.500 209.500 405 209.500 L 408.500 209.500 408.693 186.500 L 408.886 163.500 416.943 163.210 L 425 162.919 425 159.460 L 425 156 405 156 L 385 156 385 159.500 M 432.234 182.750 L 432.500 209.500 447.250 209.777 L 462 210.053 462 206.527 L 462 203 450.500 203 L 439 203 439 194.034 L 439 185.068 449.750 184.784 L 460.500 184.500 460.500 181.500 L 460.500 178.500 449.750 178.216 L 439 177.932 439 170.466 L 439 163 450.500 163 L 462 163 462 159.500 L 462 156 446.984 156 L 431.967 156 432.234 182.750 M 473 183.063 L 473 210.127 476.250 209.813 L 479.500 209.500 479.784 198.699 L 480.069 187.898 485.271 188.199 L 490.474 188.500 496.545 199 C 502.382 209.095, 502.758 209.512, 506.308 209.810 C 509.051 210.041, 510 209.738, 510 208.630 C 510 207.810, 507.026 202.357, 503.391 196.512 C 499.757 190.666, 496.944 185.797, 497.141 185.692 C 505.218 181.370, 507.296 178.010, 506.720 170.209 C 505.951 159.805, 499.714 156.120, 482.750 156.044 L 473 156 473 183.063 M 570.388 161.980 C 566.448 163.572, 564 167.876, 564 173.212 C 564 177.387, 564.473 178.627, 567.048 181.202 C 569.798 183.952, 570.552 184.198, 574.765 183.723 C 580.150 183.116, 585 178.723, 585 174.452 C 585 170.170, 582.273 165.137, 578.810 163.026 C 575.239 160.849, 573.671 160.654, 570.388 161.980 M 480 172.645 L 480 182.289 486.741 181.660 C 494.482 180.937, 498.044 178.829, 499.377 174.182 C 500.524 170.180, 498.726 165.652, 495.385 164.130 C 494.022 163.508, 490.002 163, 486.453 163 L 480 163 480 172.645" stroke="none" fill="#42c275" fill-rule="evenodd"/></svg>