<?xml version="1.0" encoding="UTF-8"?>
<svg xmlns="http://www.w3.org/2000/svg" xmlns:xlink="http://www.w3.org/1999/xlink" width="105px" height="38px" viewBox="0 0 104 38" version="1.1">
<g id="surface1">
<path style=" stroke:none;fill-rule:evenodd;fill:rgb(23.137255%,23.137255%,23.137255%);fill-opacity:1;" d="M 44.660156 1.496094 C 42.851562 1.789062 40.195312 2.625 40.078125 2.9375 C 40.011719 3.105469 41.492188 7.476562 41.691406 7.707031 C 41.714844 7.738281 42.039062 7.628906 42.410156 7.46875 C 44.660156 6.496094 47.128906 6.136719 48.601562 6.566406 C 50.074219 6.996094 51.386719 8.585938 51.386719 9.933594 L 51.386719 10.378906 L 42.640625 10.378906 L 42.734375 15.394531 L 47.0625 15.441406 C 51.265625 15.484375 51.386719 15.496094 51.386719 15.84375 C 51.386719 16.359375 50.90625 17.433594 50.460938 17.914062 C 49.871094 18.550781 48.875 18.992188 47.761719 19.109375 C 46.464844 19.246094 43.128906 18.757812 41.535156 18.195312 C 40.863281 17.960938 40.25 17.769531 40.167969 17.769531 C 40.085938 17.769531 40.039062 18.933594 40.066406 20.355469 L 40.113281 22.941406 L 40.910156 23.230469 C 42.316406 23.734375 43.296875 23.925781 45.34375 24.09375 C 51.851562 24.628906 55.617188 22.539062 57.320312 17.449219 C 58.050781 15.273438 58.089844 10.351562 57.394531 8.179688 C 56.359375 4.9375 53.898438 2.527344 50.777344 1.683594 C 49.265625 1.273438 46.535156 1.191406 44.660156 1.496094 M 89.753906 1.5 C 88.050781 1.875 86.777344 2.429688 85.714844 3.261719 C 83.058594 5.339844 81.878906 8.265625 81.898438 12.753906 C 81.933594 20.847656 86.441406 24.910156 94.472656 24.085938 C 99.417969 23.574219 102.335938 20.78125 103.210938 15.722656 C 103.710938 12.839844 103.445312 9.417969 102.539062 7.097656 C 101.03125 3.238281 97.589844 1.207031 92.636719 1.25 C 91.628906 1.257812 90.332031 1.371094 89.753906 1.5 M 61.699219 12.753906 L 61.699219 23.925781 L 67.988281 23.925781 L 68.082031 13.136719 L 71.195312 18.53125 L 74.3125 23.925781 L 77.707031 23.925781 C 79.847656 23.925781 81.101562 23.859375 81.101562 23.75 C 81.101562 23.652344 79.597656 21.179688 77.757812 18.253906 C 75.917969 15.324219 74.335938 12.757812 74.242188 12.546875 C 74.089844 12.21875 74.414062 11.617188 76.566406 8.238281 C 77.941406 6.078125 79.445312 3.738281 79.910156 3.042969 C 80.375 2.34375 80.753906 1.730469 80.753906 1.679688 C 80.753906 1.625 79.265625 1.582031 77.445312 1.582031 L 74.132812 1.582031 L 73.800781 2.066406 C 73.472656 2.542969 72.296875 4.542969 69.496094 9.402344 L 68.082031 11.851562 L 68.035156 6.71875 L 67.988281 1.582031 L 61.699219 1.582031 L 61.699219 12.753906 M 90.976562 6.667969 C 89.503906 7.351562 88.6875 8.804688 88.445312 11.15625 C 88.214844 13.414062 88.457031 15.425781 89.125 16.792969 C 89.921875 18.417969 90.890625 19 92.800781 19 C 95.691406 19 97.164062 16.582031 96.96875 12.164062 C 96.828125 9.054688 96.078125 7.394531 94.488281 6.667969 C 93.546875 6.234375 91.902344 6.238281 90.976562 6.667969 "/>
<path style=" stroke:none;fill-rule:evenodd;fill:rgb(25.882353%,76.078431%,45.882353%);fill-opacity:1;" d="M 18.4375 1.578125 C 13.371094 2.734375 9.175781 6.015625 6.859375 10.644531 C 5.53125 13.300781 4.683594 18.183594 5.261719 19.855469 C 5.5 20.539062 6.113281 20.742188 6.730469 20.335938 C 7.144531 20.0625 7.167969 19.957031 7.167969 18.425781 C 7.171875 17.53125 7.246094 16.683594 7.339844 16.535156 C 7.457031 16.355469 7.511719 16.34375 7.511719 16.496094 C 7.515625 16.621094 7.832031 17.066406 8.21875 17.488281 C 9.996094 19.429688 12.679688 18.703125 14.203125 15.875 C 14.453125 15.417969 14.96875 14.121094 15.355469 12.992188 C 16.574219 9.425781 16.535156 9.472656 18.828125 8.804688 C 20.167969 8.414062 20.449219 8.144531 20.449219 7.265625 C 20.449219 6.867188 20.183594 6.523438 19.140625 5.570312 C 18.417969 4.914062 17.828125 4.316406 17.828125 4.246094 C 17.828125 3.710938 22.769531 3.332031 24.46875 3.734375 C 25.425781 3.964844 25.433594 3.96875 25.476562 4.664062 C 25.597656 6.539062 26.183594 7.464844 28.050781 8.734375 C 28.53125 9.058594 28.882812 9.332031 28.839844 9.339844 C 28.792969 9.347656 27.535156 9.414062 26.042969 9.488281 C 23.863281 9.589844 23.171875 9.6875 22.507812 9.984375 C 21.394531 10.484375 20.933594 11.234375 21.019531 12.40625 C 21.132812 13.945312 21.71875 14.839844 24.316406 17.417969 C 27.15625 20.242188 27.167969 20.269531 26.566406 22.78125 C 26.324219 23.800781 26.214844 24.648438 26.285156 25.011719 C 26.667969 27.058594 28.589844 27.832031 30.753906 26.816406 C 32.785156 25.867188 34.015625 24.460938 35.59375 21.285156 C 36.144531 20.179688 36.628906 19.382812 36.671875 19.515625 C 36.714844 19.648438 36.652344 20.320312 36.53125 21.003906 C 35.472656 27.035156 30.871094 31.742188 24.820312 32.988281 C 23.613281 33.238281 22.851562 33.273438 20.785156 33.183594 C 18.363281 33.074219 18.222656 33.085938 17.914062 33.429688 C 17.65625 33.714844 17.625 33.886719 17.757812 34.265625 C 18.015625 35.011719 18.90625 35.222656 21.847656 35.234375 C 23.933594 35.242188 24.660156 35.171875 25.945312 34.84375 C 33.867188 32.8125 39.148438 25.699219 38.746094 17.59375 C 38.609375 14.882812 38.128906 12.992188 36.96875 10.644531 C 34.597656 5.835938 30.402344 2.625 25.027344 1.5 C 23.296875 1.136719 20.21875 1.175781 18.4375 1.578125 M 27.519531 5.207031 C 27.691406 5.914062 28.035156 6.261719 29.453125 7.175781 C 31.203125 8.308594 31.460938 8.582031 31.460938 9.277344 C 31.460938 10.824219 30.574219 11.246094 26.855469 11.464844 C 25.253906 11.558594 23.820312 11.734375 23.488281 11.871094 L 22.910156 12.117188 L 23.1875 12.929688 C 23.46875 13.769531 24.378906 14.796875 26.761719 16.976562 C 28.777344 18.820312 29.285156 20.492188 28.589844 22.972656 C 28.421875 23.558594 28.3125 24.273438 28.34375 24.554688 C 28.394531 24.992188 28.488281 25.078125 28.980469 25.125 C 30.382812 25.261719 32.242188 23.429688 33.582031 20.597656 C 34.066406 19.574219 34.890625 18.089844 35.410156 17.300781 C 35.964844 16.460938 36.355469 15.671875 36.355469 15.394531 C 36.355469 14.710938 35.550781 12.46875 34.867188 11.25 C 34.042969 9.78125 32.851562 8.265625 31.769531 7.304688 C 30.660156 6.320312 28.59375 4.996094 27.898438 4.824219 C 27.410156 4.703125 27.394531 4.71875 27.519531 5.207031 M 14.679688 5.417969 C 12.53125 6.710938 10.910156 8.226562 9.636719 10.132812 L 8.917969 11.207031 L 9.082031 13.378906 C 9.300781 16.261719 9.8125 16.988281 11.140625 16.296875 C 11.925781 15.886719 12.519531 14.859375 13.359375 12.441406 C 14.691406 8.621094 15.175781 7.875 16.6875 7.292969 L 17.449219 7 L 16.648438 5.964844 C 16.210938 5.394531 15.765625 4.929688 15.660156 4.933594 C 15.554688 4.941406 15.113281 5.15625 14.679688 5.417969 M 1.441406 22.78125 C 0.699219 23.105469 0.707031 23.339844 1.589844 26.003906 C 2.898438 29.957031 4.429688 31.1875 8.347656 31.4375 L 9.964844 31.542969 L 9.964844 33.765625 C 9.964844 36.28125 10.132812 36.769531 11.007812 36.769531 C 11.949219 36.769531 12.058594 36.460938 12.058594 33.851562 L 12.058594 31.492188 L 13.066406 31.488281 C 16.085938 31.484375 18.210938 30.550781 19.378906 28.707031 C 19.992188 27.742188 21.144531 24.433594 21.148438 23.640625 C 21.152344 22.636719 20.730469 22.523438 17.628906 22.6875 C 15.832031 22.78125 15.105469 22.894531 14.46875 23.179688 C 13.347656 23.683594 11.980469 25.007812 11.46875 26.09375 L 11.046875 26.988281 L 10.671875 26.179688 C 10.101562 24.964844 9.238281 24.054688 8.039062 23.414062 C 7.148438 22.933594 6.675781 22.808594 5.273438 22.683594 C 2.925781 22.472656 2.101562 22.492188 1.441406 22.78125 M 3.320312 24.699219 C 3.320312 24.761719 3.480469 25.296875 3.675781 25.878906 C 4.527344 28.417969 5.8125 29.363281 8.433594 29.375 C 9.59375 29.378906 9.609375 29.34375 9.140625 27.847656 C 8.785156 26.707031 7.910156 25.628906 6.9375 25.128906 C 6.238281 24.769531 3.320312 24.421875 3.320312 24.699219 M 15.992188 24.792969 C 14.484375 25.164062 13.511719 26.175781 12.953125 27.949219 C 12.75 28.597656 12.585938 29.195312 12.585938 29.277344 C 12.585938 29.359375 13.238281 29.386719 14.035156 29.339844 C 15.734375 29.230469 16.65625 28.832031 17.457031 27.855469 C 17.941406 27.261719 18.703125 25.433594 18.703125 24.859375 C 18.703125 24.605469 16.9375 24.5625 15.992188 24.792969 M 91.804688 27.519531 C 90.351562 27.992188 89.867188 28.539062 90.460938 29.035156 C 90.683594 29.21875 90.84375 29.195312 91.378906 28.898438 C 92.367188 28.347656 92.988281 28.273438 93.679688 28.628906 C 94.789062 29.199219 94.746094 30.601562 93.574219 32.027344 C 93.21875 32.457031 92.28125 33.484375 91.492188 34.304688 C 89.066406 36.828125 89.152344 36.96875 93.089844 36.90625 L 96.046875 36.855469 L 96.15625 35.714844 L 91.511719 35.714844 L 93.066406 34.171875 C 95.59375 31.671875 96.167969 30.394531 95.476562 28.816406 C 94.929688 27.570312 93.351562 27.011719 91.804688 27.519531 M 99.628906 27.390625 C 98.050781 27.964844 97.359375 28.902344 97.359375 30.449219 C 97.359375 32.175781 98.226562 33.238281 99.75 33.375 C 100.398438 33.433594 100.777344 33.355469 101.40625 33.03125 L 102.21875 32.609375 L 102.128906 33.238281 C 102.003906 34.113281 101.527344 35.011719 100.964844 35.4375 C 100.609375 35.703125 100.148438 35.8125 99.175781 35.863281 C 97.875 35.929688 97.863281 35.933594 97.917969 36.390625 C 97.96875 36.832031 98.023438 36.859375 99.101562 36.910156 C 100.554688 36.980469 101.539062 36.605469 102.316406 35.691406 C 103.113281 34.753906 103.390625 33.691406 103.382812 31.578125 C 103.375 29.1875 102.867188 28.183594 101.332031 27.539062 C 100.683594 27.265625 100.113281 27.214844 99.628906 27.390625 M 39.933594 27.65625 C 39.886719 27.785156 39.867188 29.90625 39.894531 32.375 L 39.941406 36.855469 L 40.496094 36.910156 C 41.007812 36.960938 41.066406 36.914062 41.164062 36.382812 C 41.222656 36.0625 41.246094 35.089844 41.21875 34.21875 L 41.164062 32.632812 L 43.472656 32.585938 L 45.785156 32.535156 L 45.832031 34.695312 L 45.882812 36.855469 L 47.007812 36.964844 L 47.054688 32.363281 C 47.082031 29.832031 47.058594 27.683594 47 27.589844 C 46.941406 27.492188 46.664062 27.441406 46.386719 27.472656 L 45.882812 27.53125 L 45.832031 29.421875 L 45.78125 31.316406 L 41.25 31.316406 L 41.230469 30.304688 C 41.171875 27.3125 41.226562 27.539062 40.59375 27.476562 C 40.238281 27.441406 39.992188 27.511719 39.933594 27.65625 M 49.292969 30.742188 C 49.292969 34.324219 49.410156 35.058594 50.121094 35.90625 C 50.75 36.660156 51.503906 36.945312 52.875 36.945312 C 54.621094 36.945312 55.910156 36.140625 56.285156 34.820312 C 56.378906 34.488281 56.457031 32.691406 56.457031 30.820312 L 56.457031 27.421875 L 55.890625 27.476562 L 55.320312 27.53125 L 55.234375 31.050781 C 55.136719 35.023438 55.085938 35.1875 53.882812 35.648438 C 52.535156 36.167969 51.152344 35.644531 50.742188 34.464844 C 50.613281 34.089844 50.53125 32.664062 50.523438 30.65625 L 50.515625 27.445312 L 49.289062 27.445312 L 49.292969 30.742188 M 58.808594 27.667969 C 58.761719 27.789062 58.746094 29.90625 58.769531 32.375 L 58.816406 36.855469 L 59.867188 36.855469 L 59.859375 33.21875 C 59.859375 31.21875 59.902344 29.613281 59.964844 29.648438 C 60.066406 29.714844 60.484375 30.347656 63.457031 34.972656 C 64.722656 36.941406 64.742188 36.960938 65.359375 36.910156 L 65.984375 36.855469 L 66.03125 32.140625 L 66.078125 27.421875 L 65.503906 27.476562 L 64.933594 27.53125 L 64.90625 31.019531 C 64.890625 32.9375 64.847656 34.539062 64.8125 34.574219 C 64.746094 34.644531 63.644531 33 61.300781 29.339844 C 60.148438 27.535156 60.0625 27.445312 59.492188 27.445312 C 59.164062 27.445312 58.855469 27.542969 58.808594 27.667969 M 67.292969 28.058594 L 67.292969 28.675781 L 70.085938 28.675781 L 70.179688 36.855469 L 71.402344 36.855469 L 71.433594 32.808594 L 71.46875 28.765625 L 72.878906 28.710938 L 74.285156 28.660156 L 74.285156 27.445312 L 67.292969 27.445312 L 67.292969 28.058594 M 75.550781 32.152344 L 75.597656 36.855469 L 78.175781 36.90625 L 80.753906 36.953125 L 80.753906 35.714844 L 76.734375 35.714844 L 76.734375 32.558594 L 80.492188 32.457031 L 80.492188 31.402344 L 78.613281 31.351562 L 76.734375 31.304688 L 76.734375 28.675781 L 80.753906 28.675781 L 80.753906 27.445312 L 75.503906 27.445312 L 75.550781 32.152344 M 82.675781 32.207031 L 82.675781 36.964844 L 83.242188 36.910156 L 83.8125 36.855469 L 83.863281 34.957031 L 83.910156 33.054688 L 84.820312 33.109375 L 85.730469 33.160156 L 86.792969 35.007812 C 87.8125 36.785156 87.878906 36.859375 88.496094 36.910156 C 88.976562 36.953125 89.144531 36.898438 89.144531 36.703125 C 89.144531 36.558594 88.621094 35.601562 87.988281 34.570312 C 87.351562 33.542969 86.859375 32.6875 86.894531 32.667969 C 88.308594 31.90625 88.671875 31.316406 88.570312 29.945312 C 88.433594 28.113281 87.34375 27.464844 84.378906 27.453125 L 82.675781 27.445312 L 82.675781 32.207031 M 99.699219 28.496094 C 99.007812 28.777344 98.582031 29.535156 98.582031 30.472656 C 98.582031 31.207031 98.664062 31.425781 99.113281 31.878906 C 99.59375 32.363281 99.726562 32.40625 100.464844 32.320312 C 101.40625 32.214844 102.253906 31.441406 102.253906 30.691406 C 102.253906 29.9375 101.777344 29.050781 101.171875 28.679688 C 100.546875 28.296875 100.273438 28.261719 99.699219 28.496094 M 83.898438 30.371094 L 83.898438 32.070312 L 85.078125 31.957031 C 86.429688 31.832031 87.054688 31.460938 87.285156 30.644531 C 87.488281 29.9375 87.171875 29.140625 86.589844 28.875 C 86.351562 28.765625 85.648438 28.675781 85.027344 28.675781 L 83.898438 28.675781 L 83.898438 30.371094 "/>
</g>
</svg>
